{
    "asset" : {
        "generator" : "Khronos glTF Blender I/O v3.3.32",
        "version" : "2.0"
    },
    "scene" : 0,
    "scenes" : [
        {
            "name" : "Scene",
            "nodes" : [
                0
            ]
        }
    ],
    "nodes" : [
        {
            "mesh" : 0,
            "name" : "Object_28",
            "scale" : [
                0.05160411819815636,
                0.05160411819815636,
                0.05160411819815636
            ],
            "translation" : [
                -0.1374807357788086,
                4.094379425048828,
                -0.053858041763305664
            ]
        }
    ],
    "materials" : [
        {
            "doubleSided" : true,
            "name" : "empire_state",
            "pbrMetallicRoughness" : {
                "baseColorTexture" : {
                    "index" : 0
                },
                "metallicFactor" : 0,
                "roughnessFactor" : 0.5
            }
        }
    ],
    "meshes" : [
        {
            "name" : "Object_12",
            "primitives" : [
                {
                    "attributes" : {
                        "POSITION" : 0,
                        "NORMAL" : 1,
                        "TEXCOORD_0" : 2
                    },
                    "indices" : 3,
                    "material" : 0
                }
            ]
        }
    ],
    "textures" : [
        {
            "sampler" : 0,
            "source" : 0
        }
    ],
    "images" : [
        {
            "mimeType" : "image/png",
            "name" : "empire_state_baseColor",
            "uri" : "empire_state_baseColor.png"
        }
    ],
    "accessors" : [
        {
            "bufferView" : 0,
            "componentType" : 5126,
            "count" : 3951,
            "max" : [
                7.070278644561768,
                13.030221939086914,
                7.05458402633667
            ],
            "min" : [
                -7.093234539031982,
                -79.25542449951172,
                -7.10892915725708
            ],
            "type" : "VEC3"
        },
        {
            "bufferView" : 1,
            "componentType" : 5126,
            "count" : 3951,
            "type" : "VEC3"
        },
        {
            "bufferView" : 2,
            "componentType" : 5126,
            "count" : 3951,
            "type" : "VEC2"
        },
        {
            "bufferView" : 3,
            "componentType" : 5123,
            "count" : 4104,
            "type" : "SCALAR"
        }
    ],
    "bufferViews" : [
        {
            "buffer" : 0,
            "byteLength" : 47412,
            "byteOffset" : 0,
            "target" : 34962
        },
        {
            "buffer" : 0,
            "byteLength" : 47412,
            "byteOffset" : 47412,
            "target" : 34962
        },
        {
            "buffer" : 0,
            "byteLength" : 31608,
            "byteOffset" : 94824,
            "target" : 34962
        },
        {
            "buffer" : 0,
            "byteLength" : 8208,
            "byteOffset" : 126432,
            "target" : 34963
        }
    ],
    "samplers" : [
        {
            "magFilter" : 9729,
            "minFilter" : 9987
        }
    ],
    "buffers" : [
        {
            "byteLength" : 134640,
            "uri" : "scene.bin"
        }
    ]
}
